<svg id="Layer_1" data-name="Layer 1" xmlns="http://www.w3.org/2000/svg" viewBox="0 0 730.12 140.76"><title>logo</title><path d="M142.53,26.56c-9.16,6.58-15.45,15.1-20.62,25-5.73,11-11.62,21.6-19.38,31.33-1.9,2.4-3.88,4.74-5.91,7-1.82,2.06-4.81,4.5-5.47,7.36-1.05,4.48,2.44,7.41,6.31,8.58,5.25,1.58,11.26,1.23,16.68,1.24,7.32,0,14.62-.33,21.91-1,5.09-.44,5.14-8.44,0-8-10.73.93-21.92,1.69-32.68.66-.78-.08-2.49,0-3.14-.5S98.66,99.42,101,97c1.71-1.75,3.28-3.7,4.85-5.58,3.28-3.94,6.41-8,9.34-12.23,10.51-15.1,15.9-34.62,31.34-45.71,4.14-3,.16-9.92-4-6.91Z"/><path d="M237.83,27.22c-25.43,3-46.06,26.14-55.3,48.86-4.71,11.57-5.35,25.58,2.1,36.22,7.65,10.93,21.6,13.86,34,10.2,12.93-3.83,24.26-13.44,32.93-23.5s16-22.39,19.52-35.41c3.27-12.18,1.53-26.85-10.43-33.66-9.68-5.5-20.92-1-25.59,8.7-5.65,11.77-.09,24.36,10.61,30.9,14.5,8.85,31.71,4.65,46.77-.28,4.88-1.59,2.79-9.32-2.12-7.71-10.95,3.58-23.12,7.45-34.57,3.83-8.14-2.57-16.3-9.58-14.86-18.92,1.41-9.13,10.76-14.6,18.29-7.74,8.58,7.81,5.48,20.68,1.7,30.07C253.43,87.19,238,106.83,218.91,114c-9.62,3.6-21.53,2.83-27.78-6.3-5.83-8.52-4.87-19.56-1.21-28.71,7.7-19.24,26.18-41.18,47.91-43.75,5-.6,5.11-8.6,0-8Z"/><path d="M339.1,22a76.92,76.92,0,0,0-18,36.69C319.22,69,316.84,86.79,330.46,90c11.72,2.73,25.67-6.52,35.11-12.3A157.14,157.14,0,0,0,399,50.15l-6.69-3.89c-2.67,16.06-12.43,31.63-7.32,48.28,4.59,15,20,20.6,34,14.78,15-6.19,26.85-21.36,36.49-33.84A205.25,205.25,0,0,0,482.1,30c2-4.69-4.9-8.77-6.9-4a204.32,204.32,0,0,1-21.26,38.29c-8.26,11.66-17.93,23.51-29.2,32.4-5.42,4.28-12,7.69-19.15,7S394,97.7,392.32,91.12C388.66,76.6,397.67,62.4,400,48.38c.6-3.61-3.73-7.1-6.69-3.89a149,149,0,0,1-25.5,22.2c-8.73,6-19.11,12.79-29.53,15.19-5.92,1.36-10-.23-10.41-6.75a61.2,61.2,0,0,1,1.42-16.75,68.94,68.94,0,0,1,15.46-30.76c3.37-3.86-2.26-9.54-5.66-5.65Z"/><path d="M570.94,87.92c10-23.8,18.61-49.71,34.32-70.51a20,20,0,0,1,2.15-2.55c-.31,0,2.07,1.66,2.45,1.94a31.83,31.83,0,0,1,6.67,6.39c3.56,4.66,5.18,10.55,2.72,16.12-5.79,13.07-21.72,12.88-33,8.22-4.09-1.69-6.12,4-3.89,6.68,8.49,10.21,11.49,24.38,17.58,36a160.62,160.62,0,0,0,23.44,33.33c3.47,3.83,9.11-1.85,5.66-5.66a153,153,0,0,1-23.76-34.79C599.5,71.54,596.37,58.64,588,48.55l-3.89,6.69c14.1,5.81,31.8,4.42,40.68-9.4,8.54-13.29.63-27.75-10.87-35.95-7-5-10.78-2.88-15.55,3.49a143.65,143.65,0,0,0-13.53,22.49c-8,16.23-14.58,33.25-21.59,49.93-2,4.74,5.74,6.8,7.71,2.12Z"/><path d="M717.09,33.45C712.68,21,699.16,17.48,687.26,20c-10.63,2.27-29.38,8.17-27,22.3,2.37,14.33,20.09,17.4,30.37,24.2,6.27,4.15,12.89,9.51,16.88,16S711,96.2,702.83,98.17c-7.49,1.82-15.92-.71-23.09-2.75a124.52,124.52,0,0,1-26.49-11.07c-4.5-2.51-8.54,4.4-4,6.9,12.88,7.17,27.13,12.7,41.76,14.88,9.83,1.46,22.9.11,26.49-11,4.11-12.73-8.35-24.58-17.29-31.55a85.39,85.39,0,0,0-17.24-10.4c-5.28-2.4-16.62-6.53-14.84-14.41.83-3.67,5.31-5.43,8.39-6.74a74,74,0,0,1,12-4.15c7.46-1.74,17.87-.79,20.86,7.66,1.71,4.82,9.44,2.74,7.72-2.13Z"/><path d="M512.58,72.49c13.29-4.33,28.26-9.33,36.88-21.13,5.86-8,6.25-24.4-7.12-24.3-6.62.05-13.55,4.7-18.66,8.54a66,66,0,0,0-13.47,13.7,67.14,67.14,0,0,0-12.89,36c-.37,7.17.18,15.27,3.49,21.76,3,5.93,9.27,11.23,16.19,8.44,4.72-1.9,2.66-9.65-2.12-7.72-6.76,2.73-9-9.87-9.4-14.22a54.86,54.86,0,0,1,1-16.76A60,60,0,0,1,523.3,46.36a52.92,52.92,0,0,1,13.8-9.63c3.16-1.51,7.6-3.17,8.43,1.32.45,2.41-.53,5.32-1.71,7.39-6.39,11.18-22,15.64-33.37,19.34-4.88,1.58-2.79,9.31,2.13,7.71Z"/><path d="M28.28,22.34c.47,15.3-2.88,30.11-7.74,44.54C16,80.33,8.73,93.42,7.17,107.67c-.56,5.11,7.45,5.07,8,0C16,100.29,19,93.42,21.72,86.59c2.77-7,5.43-14,7.71-21.15,4.44-13.95,7.3-28.41,6.85-43.1-.15-5.14-8.15-5.16-8,0Z"/><path d="M36.26,25.47a437.39,437.39,0,0,1,53.33-1.33c5.14.19,5.14-7.81,0-8a437.39,437.39,0,0,0-53.33,1.33c-5.09.44-5.14,8.44,0,8Z"/><path d="M32.22,66.89l33.33,0c5.15,0,5.16-8,0-8l-33.33,0c-5.15,0-5.16,8,0,8Z"/></svg>