<svg id="Layer_1" data-name="Layer 1" xmlns="http://www.w3.org/2000/svg" viewBox="0 0 730.12 140.76"><defs><style>.cls-1{fill:#ff2be9;}</style></defs><title>logo</title><path class="cls-1" d="M152.53,26.56c-9.16,6.58-15.45,15.1-20.62,25-5.73,11-11.62,21.6-19.38,31.33-1.9,2.4-3.88,4.74-5.91,7-1.82,2.06-4.81,4.5-5.47,7.36-1.05,4.48,2.44,7.41,6.31,8.58,5.25,1.58,11.26,1.23,16.68,1.24,7.32,0,14.62-.33,21.91-1,5.09-.44,5.14-8.44,0-8-10.73.93-21.92,1.69-32.68.66-.78-.08-2.49,0-3.14-.5s-1.57,1.09.81-1.34c1.71-1.75,3.28-3.7,4.85-5.58,3.28-3.94,6.41-8,9.34-12.23,10.51-15.1,15.9-34.62,31.34-45.71,4.14-3,.16-9.92-4-6.91Z"/><path class="cls-1" d="M237.83,27.22c-25.43,3-46.06,26.14-55.3,48.86-4.71,11.57-5.35,25.58,2.1,36.22,7.65,10.93,21.6,13.86,34,10.2,12.93-3.83,24.26-13.44,32.93-23.5s16-22.39,19.52-35.41c3.27-12.18,1.53-26.85-10.43-33.66-9.68-5.5-20.92-1-25.59,8.7-5.65,11.77-.09,24.36,10.61,30.9,14.5,8.85,31.71,4.65,46.77-.28,4.88-1.59,2.79-9.32-2.12-7.71-10.95,3.58-23.12,7.45-34.57,3.83-8.14-2.57-16.3-9.58-14.86-18.92,1.41-9.13,10.76-14.6,18.29-7.74,8.58,7.81,5.48,20.68,1.7,30.07C253.43,87.19,238,106.83,218.91,114c-9.62,3.6-21.53,2.83-27.78-6.3-5.83-8.52-4.87-19.56-1.21-28.71,7.7-19.24,26.18-41.18,47.91-43.75,5-.6,5.11-8.6,0-8Z"/><path class="cls-1" d="M339.1,22a76.92,76.92,0,0,0-18,36.69C319.22,69,316.84,86.79,330.46,90c11.72,2.73,25.67-6.52,35.11-12.3A157.14,157.14,0,0,0,399,50.15l-6.69-3.89c-2.67,16.06-12.43,31.63-7.32,48.28,4.59,15,20,20.6,34,14.78,15-6.19,26.85-21.36,36.49-33.84A205.25,205.25,0,0,0,482.1,30c2-4.69-4.9-8.77-6.9-4a204.32,204.32,0,0,1-21.26,38.29c-8.26,11.66-17.93,23.51-29.2,32.4-5.42,4.28-12,7.69-19.15,7S394,97.7,392.32,91.12C388.66,76.6,397.67,62.4,400,48.38c.6-3.61-3.73-7.1-6.69-3.89a149,149,0,0,1-25.5,22.2c-8.73,6-19.11,12.79-29.53,15.19-5.92,1.36-10-.23-10.41-6.75a61.2,61.2,0,0,1,1.42-16.75,68.94,68.94,0,0,1,15.46-30.76c3.37-3.86-2.26-9.54-5.66-5.65Z"/><path class="cls-1" d="M570.94,87.92c10-23.8,18.61-49.71,34.32-70.51a20,20,0,0,1,2.15-2.55c-.31,0,2.07,1.66,2.45,1.94a31.83,31.83,0,0,1,6.67,6.39c3.56,4.66,5.18,10.55,2.72,16.12-5.79,13.07-21.72,12.88-33,8.22-4.09-1.69-6.12,4-3.89,6.68,8.49,10.21,11.49,24.38,17.58,36a160.62,160.62,0,0,0,23.44,33.33c3.47,3.83,9.11-1.85,5.66-5.66a153,153,0,0,1-23.76-34.79C599.5,71.54,596.37,58.64,588,48.55l-3.89,6.69c14.1,5.81,31.8,4.42,40.68-9.4,8.54-13.29.63-27.75-10.87-35.95-7-5-10.78-2.88-15.55,3.49a143.65,143.65,0,0,0-13.53,22.49c-8,16.23-14.58,33.25-21.59,49.93-2,4.74,5.74,6.8,7.71,2.12Z"/><path class="cls-1" d="M717.09,33.45c-9.78-27.64-68.71-10.61-55.16,14.1,6.48,11.82,22.39,14.42,32.66,21.83,7.66,5.52,25.85,25,7.6,28.72-6.91,1.41-14.05-.41-20.71-2.2a124.63,124.63,0,0,1-28.23-11.55c-4.5-2.51-8.54,4.4-4,6.9,13.15,7.32,28.15,13.38,43.21,15.06,8.7,1,20.43-.5,24.52-9.48,5.6-12.29-6.69-25.39-15.53-32.28A83,83,0,0,0,684.2,54.47c-5.43-2.47-12.88-5.36-15.45-11.23-6-13.64,34.69-24.43,40.62-7.66,1.71,4.82,9.44,2.74,7.72-2.13Z"/><path class="cls-1" d="M507.12,77.37c13.31-4.42,26.84-11,37.28-20.5,7-6.4,15.41-22.77,3-28.73-6.57-3.17-14.27,1.2-19.8,4.71a62.41,62.41,0,0,0-15.12,13.46A68.27,68.27,0,0,0,497.41,83.9c-.54,7.12-.14,15.22,2.79,21.82,2.85,6.43,9.3,12.78,16.8,9.76,4.72-1.9,2.66-9.65-2.12-7.72-7.17,2.89-9.2-11.13-9.51-15.6a55.81,55.81,0,0,1,1.74-18.06A59.63,59.63,0,0,1,526.9,43.16c2.92-2.36,15.51-11.82,18.29-6.57,2.49,4.71-2.38,10.72-5.46,13.7-9.42,9.1-22.43,15.28-34.74,19.37-4.86,1.61-2.78,9.34,2.13,7.71Z"/><path class="cls-1" d="M108,34.92q-16.44-3.2-33.07-5.19c-8.24-1-16.64-2.2-24.94-1.7-2.37.14-3.71,1.73-4,4C44.08,46.86,38.4,60.84,31.52,74,25,86.46,15.68,98.27,12,112c-1.35,5,6.36,7.09,7.71,2.12,2.11-7.77,6.46-14.44,10.5-21.32,3.76-6.38,7.4-12.84,10.67-19.48C47.3,60.19,52.12,46.56,54,32l-4,4c7.68-.46,15.42.62,23,1.48,11,1.26,22,3,32.83,5.13,5,1,7.19-6.73,2.13-7.72Z"/><path class="cls-1" d="M40.05,78.51c12.17,0,24.34.38,36.5.41,5.15,0,5.16-8,0-8-12.16,0-24.33-.38-36.5-.41-5.15,0-5.15,8,0,8Z"/></svg>